<svg t="1588310141896" class="icon" viewBox="0 0 1024 1024" version="1.1" xmlns="http://www.w3.org/2000/svg" p-id="803" width="200" height="200"><path d="M830.0796875 255.9996875l-62.52 22.98V747.5l62.52 22.9996875c27.78 10.220625 51.980625-16.74 51.980625-60.999375V317c0-44.240625-24.200625-71.2003125-52.0003125-61.0003125m-458.4 127.26L198.119375 405.5c-6.819375 0.8803125-12.2596875-9.42-12.2596875-22.9996875 0-13.580625 5.4403125-25.640625 12.260625-26.94l173.559375-33.4603125c10.4203125-1.9996875 19.0603125 10.3003125 19.0603125 27.5203125 0 17.2396875-8.64 32.319375-19.059375 33.639375m-185.8209375 121.2c0-13.56 5.4403125-24.759375 12.260625-24.96l87.819375-2.8396875c8.6203125-0.2803125 15.740625 12.159375 15.740625 27.7996875s-7.1203125 28.100625-15.740625 27.8203125l-87.819375-2.840625c-6.8203125-0.219375-12.260625-11.4-12.260625-24.9796875m126.8803125 171l-114.6196875-22.08c-6.8203125-1.32-12.260625-13.38-12.260625-26.94 0-13.599375 5.4403125-23.8996875 12.260625-22.9996875l114.6196875 14.6596875c9.159375 1.1803125 16.74 15.24 16.74 31.38s-7.5796875 27.7603125-16.74 26.000625m107.52-540.36L168.5 228.6003125c-20.5996875 7.6396875-36.4996875 47.5996875-36.4996875 89.559375v372.54c0 42 15.879375 81.9403125 36.4996875 89.600625l251.76 93.48c39.4996875 14.6596875 73.92-24.0403125 73.92-87.560625V222.68c0-63.54-34.3996875-102.24-73.92-87.5803125m234.5803125 120.8803125l-99.920625 36.759375v441.020625l99.920625 36.740625c27.759375 10.21875 51.96-16.7409375 51.96-61.0003125V317c0-44.240625-24.200625-71.2003125-51.96-61.0003125" fill="#1296db" p-id="804"></path></svg>
